<svg width="172" height="36" viewBox="0 0 172 36" fill="none" xmlns="http://www.w3.org/2000/svg">
<g clip-path="url(#clip0_688_3030)">
<path d="M80.6331 12.9527V23.8964C80.3883 23.9102 80.143 23.9102 79.8982 23.8964C79.8533 23.8794 79.8135 23.8511 79.7826 23.8143C79.7518 23.7774 79.731 23.7332 79.7223 23.686C79.7085 23.4562 79.7085 23.2257 79.7223 22.9959V11.1828C80.2501 11.0103 80.464 11.0758 80.7573 11.4657L87.347 20.0289C87.8818 20.7189 88.4096 21.433 88.9996 22.2093V11.1379H89.9104V23.8447C89.317 23.9861 89.2204 23.9447 88.8754 23.4997L83.0999 16.0095C82.365 15.0573 81.6371 14.105 80.9057 13.1528C80.8435 13.0734 80.778 13.001 80.7159 12.9216L80.6331 12.9527Z" fill="black"/>
<path d="M165.103 11.0244C168.832 11.0244 171.623 13.7845 171.63 17.4865C171.637 21.1884 168.846 23.9968 165.075 23.9968C164.241 24.0161 163.411 23.8706 162.633 23.5688C161.855 23.267 161.144 22.8148 160.541 22.238C159.938 21.6612 159.454 20.9711 159.118 20.2073C158.782 19.4435 158.6 18.6209 158.582 17.7866C158.582 17.6877 158.582 17.5877 158.582 17.4865C158.592 13.7914 161.377 11.0279 165.103 11.0244ZM165.151 23.1412C168.398 23.0756 170.764 20.6364 170.699 17.4209C170.637 14.271 168.308 11.8524 165.075 11.8766C164.324 11.8649 163.579 12.0072 162.885 12.2949C162.192 12.5825 161.564 13.0094 161.042 13.549C160.52 14.0887 160.114 14.7297 159.849 15.4324C159.585 16.1352 159.467 16.8848 159.503 17.6348C159.495 18.3529 159.629 19.0655 159.897 19.7317C160.165 20.398 160.562 21.0049 161.065 21.5176C161.568 22.0303 162.167 22.4389 162.828 22.7198C163.489 23.0008 164.198 23.1487 164.916 23.155L165.151 23.1412Z" fill="black"/>
<path d="M137.733 17.5451C138.616 17.414 138.616 17.414 138.62 18.2351V22.6858C138.62 22.9721 138.682 23.0825 138.996 23.0791H142.539C143.714 23.111 144.875 22.8199 145.896 22.2373C146.587 21.8284 147.173 21.2623 147.604 20.5849C148.036 19.9076 148.302 19.138 148.38 18.3387C148.591 17.027 148.332 15.683 147.649 14.5435C147.205 13.7975 146.58 13.1752 145.833 12.7339C145.085 12.2926 144.238 12.0464 143.371 12.0181C141.718 11.918 140.058 11.9698 138.399 11.956C137.647 11.956 137.647 11.956 137.743 11.1521C137.815 11.135 137.888 11.1246 137.961 11.121C139.789 11.121 141.621 11.0727 143.443 11.1728C144.923 11.2378 146.33 11.836 147.403 12.8569C148.477 13.8778 149.145 15.2526 149.284 16.7275C149.417 17.8626 149.264 19.0131 148.839 20.0741C148.5 20.921 147.968 21.6767 147.284 22.2807C146.6 22.8846 145.785 23.32 144.902 23.5518C144.126 23.7584 143.326 23.8662 142.522 23.8726C141 23.9175 139.479 23.8726 137.957 23.8726H137.733V17.5451Z" fill="black"/>
<path d="M61.0475 17.5623V22.0474C61.0528 22.1473 61.0335 22.247 60.9914 22.3378C60.9493 22.4286 60.8857 22.5078 60.806 22.5684C59.934 23.2855 58.8788 23.7444 57.7596 23.8932C55.8103 24.183 53.9886 23.8621 52.4188 22.627C50.5558 21.1607 49.8347 19.1769 50.0313 16.8619C50.0903 15.8528 50.4002 14.8745 50.9327 14.0154C51.4653 13.1563 52.2037 12.4437 53.0812 11.942C54.4883 11.1206 56.1407 10.8236 57.7458 11.1037C58.8201 11.2433 59.8344 11.6794 60.6749 12.3629C60.8164 12.4768 60.944 12.6045 61.1096 12.7528L60.5714 13.3669C60.2719 13.1163 59.9561 12.8858 59.6261 12.6769C57.4905 11.497 55.3341 11.5349 53.3193 12.8736C51.3976 14.1432 50.711 16.0753 51.0008 18.3144C51.1201 19.4867 51.6253 20.5863 52.4371 21.4405C53.2488 22.2947 54.3212 22.8552 55.486 23.0341C56.2439 23.1979 57.0273 23.2056 57.7883 23.0567C58.5494 22.9078 59.2721 22.6055 59.9124 22.1681C59.9982 22.1164 60.0681 22.042 60.1143 21.9531C60.1606 21.8643 60.1814 21.7644 60.1746 21.6644V17.928C60.1746 17.6209 60.2678 17.5174 60.5645 17.5588C60.7253 17.5686 60.8866 17.5697 61.0475 17.5623V17.5623Z" fill="black"/>
<path d="M131.533 11.1348H132.417C132.43 11.2031 132.438 11.2723 132.441 11.3418C132.441 13.9328 132.441 16.5169 132.42 19.1218C132.413 19.9873 132.2 20.8387 131.799 21.6058C131.074 23.0031 129.877 23.7242 128.349 23.9312C127.545 24.0418 126.727 24.0103 125.934 23.8381C124.119 23.4413 122.874 22.113 122.553 20.1533C122.445 19.4594 122.392 18.758 122.394 18.0557C122.373 15.8821 122.394 13.7085 122.394 11.535V11.1382H123.305V18.3489C123.281 19.1542 123.398 19.9574 123.65 20.7226C123.824 21.2665 124.135 21.7565 124.553 22.1455C124.971 22.5346 125.482 22.8097 126.037 22.9445C127.007 23.2122 128.034 23.1942 128.994 22.8927C129.564 22.7296 130.079 22.4124 130.48 21.976C130.882 21.5396 131.156 21.0008 131.271 20.419C131.436 19.6804 131.523 18.9264 131.53 18.1695C131.564 15.9615 131.53 13.7534 131.53 11.5453L131.533 11.1348Z" fill="black"/>
<path d="M107.203 12.19L106.899 12.8489C106.344 12.6074 105.83 12.3383 105.291 12.1589C104.01 11.682 102.597 11.7079 101.334 12.2314C100.779 12.4644 100.335 12.9025 100.095 13.4545C99.8543 14.0065 99.8361 14.6299 100.044 15.195C100.192 15.5404 100.42 15.8456 100.709 16.0856C100.998 16.3255 101.34 16.4933 101.707 16.5751C102.566 16.8614 103.452 17.0581 104.315 17.3375C105 17.5336 105.665 17.7935 106.302 18.1138C106.783 18.356 107.177 18.7402 107.431 19.2143C107.685 19.6884 107.788 20.2293 107.724 20.7635C107.702 21.3286 107.523 21.8766 107.208 22.3458C106.892 22.8151 106.452 23.1871 105.936 23.4201C104.727 23.9634 103.381 24.127 102.076 23.8893C101.047 23.7577 100.068 23.3684 99.2295 22.7576L99.1743 22.7162C98.5878 22.2125 98.5498 22.3402 99.0363 21.6398C99.5192 21.9896 100.026 22.3043 100.554 22.5817C101.967 23.2486 103.58 23.3582 105.071 22.8887C105.614 22.7503 106.089 22.4188 106.407 21.956C106.724 21.4933 106.862 20.9308 106.796 20.3736C106.778 20.0417 106.669 19.7211 106.48 19.4475C106.291 19.174 106.03 18.9583 105.726 18.8245C105.039 18.5217 104.332 18.2647 103.611 18.0552C102.749 17.7757 101.858 17.5756 101.013 17.2616C99.9781 16.8787 99.2122 16.1817 99.0294 15.0122C98.7258 13.087 99.9298 11.5621 101.917 11.1618C103.046 10.9278 104.214 10.9716 105.322 11.2895C106.002 11.4629 106.641 11.7689 107.203 12.19V12.19Z" fill="black"/>
<path d="M76.4279 23.8961C76.1524 23.9203 75.8753 23.9203 75.5998 23.8961C75.486 23.872 75.3618 23.7098 75.3066 23.5822C74.7097 22.2642 74.1232 20.9394 73.5367 19.618L70.335 12.4107C70.3074 12.3486 70.2763 12.29 70.2108 12.1554C70.0762 12.4314 69.9624 12.6522 69.8658 12.8799L65.9326 21.7191C65.6601 22.3298 65.3875 22.937 65.1322 23.5546C65.0287 23.8099 64.8976 23.941 64.6044 23.8996C64.3999 23.8858 64.1947 23.8858 63.9902 23.8996C64.318 23.1785 64.6251 22.4885 64.9287 21.7985L69.3206 12.0692C69.3966 11.9036 69.4828 11.7414 69.5553 11.5758C69.6168 11.3893 69.7498 11.2348 69.925 11.1462C70.1003 11.0576 70.3036 11.0421 70.4902 11.1031L70.5627 11.1307C70.6662 11.1618 70.749 11.3101 70.8007 11.424C71.6219 13.2227 72.4384 15.0248 73.2503 16.8303L76.2519 23.4856L76.4279 23.8961Z" fill="black"/>
<path d="M119.482 11.1445V11.9312H115.39C115.083 11.9312 114.986 12.0105 114.986 12.3314V23.8685H114.103V12.3762C114.103 12.0312 114.007 11.9381 113.662 11.945C112.482 11.9657 111.302 11.945 110.122 11.945C109.939 11.9484 109.755 11.9404 109.573 11.9208V11.1445H119.482Z" fill="black"/>
<path d="M154.421 23.8999H153.845C153.583 23.924 153.5 23.8343 153.5 23.5548V11.1034C153.754 11.0827 154.009 11.0827 154.262 11.1034C154.328 11.1034 154.411 11.3001 154.411 11.407V23.8999H154.421Z" fill="black"/>
</g>
<path d="M39.0007 17.5946C39.0007 25.0145 32.8158 31.1892 24.9871 31.1892C17.1584 31.1892 10.9736 25.0145 10.9736 17.5946C10.9736 10.1747 17.1584 4 24.9871 4C32.8158 4 39.0007 10.1747 39.0007 17.5946Z" stroke="#4452FE" stroke-width="8"/>
<path d="M19.7432 17.0271C19.7432 21.2861 16.1852 24.8785 11.6216 24.8785C7.05808 24.8785 3.5 21.2861 3.5 17.0271C3.5 12.7681 7.05808 9.17578 11.6216 9.17578C16.1852 9.17578 19.7432 12.7681 19.7432 17.0271Z" stroke="white" stroke-width="7"/>
<defs>
<clipPath id="clip0_688_3030">
<rect width="121.63" height="13" fill="white" transform="translate(50 11)"/>
</clipPath>
</defs>
</svg>
